<svg width="37" height="46" viewBox="0 0 37 46" fill="none" xmlns="http://www.w3.org/2000/svg">
<path d="M33.3129 0H3.05943C1.40193 0.0851494 0.0705834 1.42321 0 3.08727V43.144C0 43.178 0 43.2048 0.00486782 43.2389C0.00486782 43.2535 0.00486782 43.2681 0.00973564 43.2875C0.00973564 43.2997 0.00973564 43.3191 0.0121696 43.3337C0.0121696 43.3532 0.0170374 43.3727 0.0170374 43.3897C0.0170374 43.4043 0.0219052 43.414 0.0219052 43.4286C0.026773 43.4481 0.026773 43.4724 0.0316408 43.4894C0.0316408 43.4992 0.0365087 43.5089 0.0365087 43.5235C0.0413765 43.543 0.0462443 43.5673 0.0511121 43.5868C0.05598 43.5941 0.05598 43.6038 0.05598 43.6135L0.0705834 43.6719C0.0754512 43.6816 0.0754512 43.6938 0.0803191 43.7035C0.0851869 43.723 0.0900547 43.7425 0.0997904 43.7571C0.104658 43.7717 0.109526 43.7814 0.11196 43.7935C0.116828 43.8081 0.126563 43.8276 0.131431 43.8422L0.146035 43.886C0.150902 43.8982 0.160638 43.9128 0.165506 43.9274C0.170374 43.942 0.180109 43.9614 0.184977 43.976C0.189845 43.9857 0.194713 43.9979 0.204449 44.0076C0.21175 44.0271 0.221486 44.0417 0.226354 44.0612C0.231222 44.0709 0.236089 44.0806 0.245825 44.0904C0.255561 44.1074 0.265296 44.122 0.275032 44.1414C0.2799 44.1512 0.284768 44.1609 0.294503 44.1706C0.304239 44.1901 0.316408 44.2023 0.326144 44.2217C0.331012 44.2315 0.340748 44.2412 0.345615 44.2509C0.355351 44.2704 0.369954 44.285 0.384558 44.302C0.394294 44.3117 0.399161 44.3215 0.408897 44.3312C0.416199 44.3458 0.430802 44.3604 0.440538 44.375C0.450274 44.3896 0.464877 44.3993 0.474613 44.4115C0.484348 44.4212 0.494084 44.4358 0.50382 44.4455C0.525725 44.4699 0.545196 44.4942 0.569535 44.5161C0.593874 44.5404 0.618213 44.5599 0.640119 44.5842C0.649854 44.594 0.664458 44.6037 0.674193 44.611C0.688797 44.6207 0.698533 44.6353 0.713136 44.645C0.725306 44.6596 0.739909 44.6694 0.754512 44.6791C0.764248 44.6888 0.773984 44.6937 0.783719 44.7034C0.803191 44.7156 0.817794 44.7253 0.834832 44.7399C0.844567 44.7448 0.854303 44.7545 0.864038 44.7594C0.88351 44.7691 0.898113 44.7837 0.917585 44.7934C0.924886 44.7983 0.934622 44.8032 0.944358 44.8105C0.963829 44.8202 0.978432 44.8299 0.997904 44.8397C1.00764 44.8445 1.01737 44.8494 1.02468 44.8591C1.04415 44.8689 1.05875 44.8786 1.07822 44.8835C1.08796 44.8883 1.10256 44.8932 1.1123 44.9029C1.1269 44.9102 1.14394 44.9151 1.15854 44.92C1.17315 44.9248 1.18775 44.9345 1.20235 44.9394L1.24373 44.954C1.25833 44.9589 1.2778 44.9686 1.29241 44.9735C1.30701 44.9783 1.31675 44.9832 1.32892 44.9881C1.34839 44.9929 1.36786 45.0027 1.38246 45.0075C1.3922 45.01 1.4068 45.01 1.41654 45.0148L1.47252 45.0294C1.48225 45.0343 1.49199 45.0343 1.50659 45.0392C1.52606 45.044 1.54797 45.0489 1.56744 45.0538C1.57717 45.0538 1.58691 45.0586 1.60151 45.0586C1.62098 45.0635 1.64289 45.0684 1.66236 45.0684C1.67696 45.0684 1.6867 45.0732 1.7013 45.0732C1.72078 45.0781 1.73781 45.0781 1.75728 45.0781C1.77189 45.0781 1.79136 45.083 1.80596 45.083C1.82057 45.083 1.83517 45.0878 1.85221 45.0878C1.88628 45.0878 1.91549 45.0927 1.94713 45.0927C1.9812 45.0927 2.01528 45.0927 2.04205 45.0878C2.05665 45.0878 2.07126 45.0878 2.09073 45.083C2.10533 45.083 2.1248 45.083 2.13941 45.0781C2.15645 45.0781 2.17592 45.0732 2.19539 45.0732C2.20999 45.0732 2.21973 45.0684 2.23433 45.0684C2.25137 45.0635 2.27571 45.0635 2.29518 45.0586C2.30491 45.0586 2.31465 45.0538 2.32925 45.0538C2.34629 45.0489 2.37063 45.044 2.3901 45.0392C2.39984 45.0343 2.40957 45.0343 2.42418 45.0294L2.48016 45.0148C2.48989 45.0124 2.50449 45.0124 2.51423 45.0075C2.5337 45.0027 2.55074 44.9978 2.56534 44.9881C2.57995 44.9832 2.58968 44.9783 2.60429 44.9735C2.61889 44.9686 2.63836 44.9589 2.65053 44.954L2.69434 44.9394C2.70894 44.9345 2.72355 44.9248 2.73815 44.92C2.75032 44.9151 2.76979 44.9078 2.78439 44.9029C2.79413 44.8981 2.80873 44.8932 2.81847 44.8835C2.83794 44.8737 2.85011 44.864 2.86958 44.8591C2.87932 44.8543 2.88905 44.8494 2.89879 44.8397C2.91826 44.8299 2.93286 44.8202 2.95233 44.8105C2.95964 44.808 2.96937 44.8032 2.97911 44.7934C2.99858 44.7837 3.01805 44.7691 3.03265 44.7594C3.04239 44.7545 3.05212 44.7448 3.05943 44.7399C3.0789 44.7302 3.0935 44.7156 3.11297 44.7034C3.12271 44.6937 3.13244 44.6888 3.14218 44.6791C3.15435 44.6694 3.16895 44.6548 3.18842 44.645C3.20303 44.6353 3.21276 44.6256 3.22737 44.611C3.2371 44.6037 3.25171 44.594 3.25901 44.5842C3.28335 44.5648 3.30769 44.5404 3.32716 44.5161L17.2735 30.5759C17.7627 30.0869 18.5537 30.0869 19.0429 30.5759L32.9892 44.5161C33.3762 44.9029 33.8825 45.0927 34.3912 45.0878H34.4155C35.4913 45.0878 36.3651 44.2169 36.3651 43.1391V3.1262C36.3042 1.44754 34.9777 0.0948807 33.3129 0ZM23.2025 16.9277H19.8558V20.2729C19.8558 21.1998 19.1086 21.9466 18.1813 21.9466C17.2589 21.9466 16.5092 21.1973 16.5092 20.2729V16.9277H13.1626C12.2377 16.9277 11.4881 16.1808 11.4881 15.2563C11.4881 14.3319 12.2377 13.5825 13.1626 13.5825H16.5092V10.2374C16.5336 9.31534 17.3002 8.58549 18.2251 8.60982C19.1159 8.63171 19.8315 9.34697 19.8558 10.2374V13.5825H23.2025C24.1274 13.5825 24.8746 14.3319 24.8746 15.2563C24.8746 16.1808 24.1274 16.9277 23.2025 16.9277Z" fill="#EF1515"/>
</svg>
